<svg width="206" height="243" viewBox="0 0 206 243" fill="none" xmlns="http://www.w3.org/2000/svg">
<path d="M105.221 39.5086C91.1791 39.5086 67.8528 34.6706 56.3183 46.3549C42.0244 60.8343 32.5819 77.6818 26.2322 97.8121C20.0136 117.527 19.2273 138.946 20.1948 159.649C21.4412 186.322 53.6606 206.336 74.0278 212.431C97.3079 219.399 119.034 217.907 137.017 198.518C158.299 175.573 169.425 143.728 170.323 111.173C170.807 93.6677 170.055 75.8538 158.651 62.4767C147.084 48.9073 129.718 47.327 113.472 47.4591C94.5503 47.6129 76.8821 55.6312 58.532 59.8265C51.0809 61.53 47.466 61.7947 42.8349 68.3291C40.5387 71.5688 41.1147 78.4394 40.0174 82.3528C37.5264 91.2372 35.8047 100.407 34.6844 109.627C32.7878 125.237 29.7008 146.783 33.5776 162.299C41.963 195.86 79.6533 222.181 110.554 213.204C133.139 206.644 156.045 177.053 170.223 158.103C184.394 139.163 192.159 115.03 194.875 91.1867C196.856 73.7991 199.746 52.8119 185.92 40.8337C178.838 34.6981 166.32 33.8526 157.746 33.5458C141.991 32.982 126.472 31.5581 110.654 31.5581C92.9398 31.5581 72.6591 28.7511 57.727 41.4962C40.398 56.2871 26.2577 75.7862 15.7674 97.0391C9.68897 109.354 3.11859 123.576 2.08277 137.785C0.731427 156.322 16.2368 173.695 25.9303 187.034C43.932 211.806 77.5438 252.266 110.856 238.05C163.4 215.625 191.399 169.972 199.403 109.517C202.537 85.8482 208.16 45.2173 191.354 27.3621C179.837 15.127 165.266 0.159614 147.683 2.18556C130.389 4.17834 109.938 18.2917 96.0641 27.0308C83.3744 35.0243 64.0866 47.9002 51.4884 58.0597C18.2285 84.8813 26.102 131.045 36.0932 169.146C41.3612 189.235 50.4072 206.975 66.1793 219.499C80.9613 231.236 100.359 232.758 117.899 235.068C128.055 236.406 140.54 238.367 149.897 232.528C174.663 217.074 189.312 183.933 198.196 155.674C212.491 110.201 199.307 75.1765 170.424 42.49C158.541 29.0416 144.711 29.5705 128.766 29.5705" stroke="#7E7067" stroke-width="3" stroke-linecap="round"/>
</svg>
